# xmcd
#
# Track frame offsets:
#	150
#	10010
#	21214
#	30698
#	41953
#	50885
#	62644
#	75839
#	89218
#	101433
#	113997
#
# Disc length: 1690 seconds
#
# Revision: 1
# Processed by: cddbd v1.5.2PL0 Copyright (c) Steve Scherf et al.
# Submitted via: audiograbber 1.83.01
#
DISCID=8b06980b
DTITLE=Johnny Paycheck - Mr. Lovemaker
DYEAR=1973
DGENRE=Country
TTITLE0=Mr Lovemaker
TTITLE1=Walk With Me, Girl
TTITLE2=If You Just Win One Time
TTITLE3=If Love Gets Any Better
TTITLE4=Love Is A Strange And Wonderful Thing
TTITLE5=Something About You I Love
TTITLE6=I'm Just Tired Of Hurting You
TTITLE7=I Won't Ever Love Again
TTITLE8=Once You've Had The Best
TTITLE9=All In The Name Of Love
TTITLE10=She'll Unwine Me
EXTD=
EXTT0=
EXTT1=
EXTT2=
EXTT3=
EXTT4=
EXTT5=
EXTT6=
EXTT7=
EXTT8=
EXTT9=
EXTT10=
PLAYORDER=
